<?xml version="1.0" standalone="no"?><!DOCTYPE svg PUBLIC "-//W3C//DTD SVG 1.1//EN" "http://www.w3.org/Graphics/SVG/1.1/DTD/svg11.dtd"><svg t="1580955648641" class="icon" viewBox="0 0 1024 1024" version="1.1" xmlns="http://www.w3.org/2000/svg" p-id="2161" xmlns:xlink="http://www.w3.org/1999/xlink" width="200" height="200"><defs><style type="text/css"></style></defs><path d="M298.666667 128a85.333333 85.333333 0 0 1 85.333333-85.333333h256a85.333333 85.333333 0 0 1 85.333333 85.333333h128a85.333333 85.333333 0 0 1 85.333334 85.333333v682.666667a85.333333 85.333333 0 0 1-85.333334 85.333333H170.666667a85.333333 85.333333 0 0 1-85.333334-85.333333V213.333333a85.333333 85.333333 0 0 1 85.333334-85.333333h128z m-42.666667 298.666667a42.666667 42.666667 0 0 0 0 85.333333h341.333333a42.666667 42.666667 0 0 0 0-85.333333H256z m0 170.666666a42.666667 42.666667 0 0 0 0 85.333334h426.666667a42.666667 42.666667 0 0 0 0-85.333334H256z" fill="#2dbb55" p-id="2162"></path></svg>