<?xml version="1.0" standalone="no"?><!DOCTYPE svg PUBLIC "-//W3C//DTD SVG 1.1//EN" "http://www.w3.org/Graphics/SVG/1.1/DTD/svg11.dtd"><svg t="1579762769277" class="icon" viewBox="0 0 1024 1024" version="1.1" xmlns="http://www.w3.org/2000/svg" p-id="1541" xmlns:xlink="http://www.w3.org/1999/xlink" width="200" height="200"><defs><style type="text/css"></style></defs><path d="M511.99751 0C229.230546 0 0 229.230546 0 511.99751c0 282.770717 229.230546 512.002515 511.99751 512.002515 282.770717 0 512.002515-229.230546 512.002515-512.002515C1023.998774 229.230546 794.768228 0 511.99751 0L511.99751 0zM861.003813 861.003813c-45.33469 45.33469-98.11799 80.926387-156.891204 105.78553-60.836156 25.728606-125.474181 38.77681-192.115099 38.77681-66.637165 0-131.27519-13.048204-192.111346-38.77681-58.773214-24.859143-111.556514-60.449589-156.891204-105.78553C117.660271 815.669123 82.069825 762.887074 57.209431 704.11261c-25.728606-60.836156-38.77681-125.474181-38.77681-192.115099 0-66.637165 13.048204-131.27519 38.77681-192.111346 24.860394-58.773214 60.45084-111.556514 105.78553-156.891204 45.33469-45.33469 98.11799-80.926387 156.891204-105.78553 60.836156-25.728606 125.474181-38.77681 192.111346-38.77681 66.642169 0 131.280194 13.048204 192.115099 38.77681 58.773214 24.859143 111.556514 60.45084 156.891204 105.78553 45.33469 45.33469 80.926387 98.11799 105.78553 156.891204 25.728606 60.836156 38.77681 125.474181 38.77681 192.111346 0 66.642169-13.048204 131.280194-38.77681 192.115099C941.9302 762.887074 906.339754 815.669123 861.003813 861.003813L861.003813 861.003813zM423.516176 382.740226 122.469216 382.740226c-4.618789 0-8.36186 3.743071-8.36186 8.36186 0 4.617538 3.743071 8.365613 8.36186 8.365613l301.04696 0c4.618789 0 8.366864-3.743071 8.366864-8.365613C431.88304 386.483297 428.134965 382.740226 423.516176 382.740226L423.516176 382.740226zM423.516176 533.264957 122.469216 533.264957c-4.618789 0-8.36186 3.743071-8.36186 8.36186 0 4.622542 3.743071 8.366864 8.36186 8.366864l301.04696 0c4.618789 0 8.366864-3.743071 8.366864-8.366864C431.88304 537.008028 428.134965 533.264957 423.516176 533.264957L423.516176 533.264957zM301.218351 459.90853c0-15.589038-12.64162-28.221901-28.225655-28.221901-15.594042 0-28.221901 12.632863-28.221901 28.221901s12.627859 28.22065 28.221901 28.22065C288.57673 488.12918 301.218351 475.497568 301.218351 459.90853L301.218351 459.90853zM356.821464 322.81857c5.702178 1.42617 11.102858 2.135502 16.199539 2.135502 10.295946 0 19.327105-2.902381 26.979632-8.688377 21.644005-16.375934 22.90504-49.865907 22.943822-51.28332 0.141366-4.617538-3.484108-8.468197-8.097893-8.609563-4.514954-0.073811-8.478205 3.489112-8.614567 8.10665-0.010008 0.263967-1.237265 27.033427-16.32214 38.444037-7.305993 5.527034-16.820048 6.715509-29.027562 3.670511-4.521209-1.123422-9.026154 1.602565-10.145823 6.083741C349.618055 317.153923 352.340288 321.698901 356.821464 322.81857L356.821464 322.81857zM901.530809 382.740226 600.482598 382.740226c-4.617538 0-8.366864 3.743071-8.366864 8.36186 0 4.617538 3.748075 8.365613 8.366864 8.365613l301.048211 0c4.617538 0 8.36186-3.743071 8.36186-8.365613C909.891418 386.483297 906.148347 382.740226 901.530809 382.740226L901.530809 382.740226zM1013.820424 256.479149c4.617538 0 8.36186-3.743071 8.36186-8.360609L1022.182284 8.50823c0-4.618789-3.738066-8.36186-8.36186-8.36186-4.617538 0-8.36186 3.743071-8.36186 8.36186l0 239.610311C1005.458565 252.736079 1009.201635 256.479149 1013.820424 256.479149L1013.820424 256.479149zM952.040994 164.323551c4.617538 0 8.36186-3.748075 8.36186-8.365613L960.402854 8.50823c0-4.618789-3.743071-8.36186-8.36186-8.36186-4.622542 0-8.366864 3.743071-8.366864 8.36186l0 147.449708C943.679135 160.575476 947.418452 164.323551 952.040994 164.323551L952.040994 164.323551zM887.705718 93.152667c4.617538 0 8.366864-3.743071 8.366864-8.36186L896.072581 9.02115c0-4.618789-3.743071-8.36186-8.366864-8.36186-4.617538 0-8.36186 3.743071-8.36186 8.36186l0 75.769657C879.343858 89.409596 883.08818 93.152667 887.705718 93.152667L887.705718 93.152667zM901.530809 533.264957 600.482598 533.264957c-4.617538 0-8.366864 3.743071-8.366864 8.36186 0 4.622542 3.748075 8.366864 8.366864 8.366864l301.048211 0c4.617538 0 8.36186-3.743071 8.36186-8.366864C909.891418 537.008028 906.148347 533.264957 901.530809 533.264957L901.530809 533.264957zM779.227979 459.90853c0-15.584034-12.627859-28.221901-28.221901-28.221901-15.584034 0-28.226906 12.637867-28.226906 28.221901 0 15.589038 12.64162 28.22065 28.226906 28.22065C766.60012 488.12918 779.227979 475.497568 779.227979 459.90853L779.227979 459.90853zM623.998139 316.269448c7.652528 5.785996 16.683686 8.689628 26.979632 8.689628 5.091677 0 10.502365-0.714336 16.199539-2.140506 4.481176-1.119669 7.203409-5.659643 6.083741-10.135815-1.119669-4.481176-5.654639-7.222175-10.144572-6.083741-12.187498 3.044998-21.687791 1.866531-28.983776-3.635482-15.261269-11.494429-16.355917-38.230112-16.365926-38.499082-0.14637-4.612534-4.148403-8.248016-8.615818-8.087885-4.613785 0.142617-8.239259 3.993276-8.097893 8.610814C601.093099 266.404792 602.354133 299.889761 623.998139 316.269448L623.998139 316.269448zM571.690229 699.641442c-15.48145 1.017084-24.082256-4.773916-40.883538-16.116971-7.334767-4.950311-15.647836-10.55616-26.374136-16.83506-19.890067-11.645803-36.802691-11.323039-48.013137 0.015012-14.12784 14.304234-14.210407 41.147505-14.171626 44.162478l0.04879 0.776887c4.422378 41.753002 66.489544 56.911687 107.134136 56.911687 2.853591 0 5.61961-0.078815 8.249267-0.230189 34.774777-1.984128 46.580712-21.213652 46.131593-37.081669C603.287399 713.123752 588.651643 698.472983 571.690229 699.641442L571.690229 699.641442zM556.721699 751.627838c-34.213066 1.984128-94.042146-10.941476-97.756443-41.366434 0-6.221354 1.661363-24.023457 9.353923-31.80359 5.942375-6.021189 14.992299-4.755151 27.663944 2.668439 10.262168 6.011181 18.340045 11.454396 25.460887 16.263341 17.744557 11.967317 30.053404 20.35795 51.360883 18.936785l0.733101-0.025021c6.983229 0 13.317175 7.208413 13.551116 15.417648C587.415629 743.08458 576.063816 750.523182 556.721699 751.627838L556.721699 751.627838zM556.721699 751.627838" p-id="1542" fill="#999999"></path></svg>